<?xml version="1.0" encoding="utf-8"?>
<!-- Generator: Adobe Illustrator 19.1.0, SVG Export Plug-In . SVG Version: 6.00 Build 0)  -->
<svg version="1.1" id="Capa_1" xmlns="http://www.w3.org/2000/svg" xmlns:xlink="http://www.w3.org/1999/xlink" x="0px" y="0px"
	 viewBox="0 0 347.6 123.3" enable-background="new 0 0 347.6 123.3" xml:space="preserve">
<g>
	
		<linearGradient id="SVGID_1_" gradientUnits="userSpaceOnUse" x1="207.2588" y1="131.0594" x2="262.3901" y2="83.872" gradientTransform="matrix(0.8043 -0.5942 0.5942 0.8043 -44.3381 123.5844)">
		<stop  offset="0" style="stop-color:#82B0DD"/>
		<stop  offset="0.303" style="stop-color:#2F1C7A"/>
		<stop  offset="0.3693" style="stop-color:#443C8F"/>
		<stop  offset="0.4762" style="stop-color:#6269AC"/>
		<stop  offset="0.5838" style="stop-color:#7B8FC5"/>
		<stop  offset="0.6905" style="stop-color:#8EACD8"/>
		<stop  offset="0.7961" style="stop-color:#9CC0E5"/>
		<stop  offset="0.8999" style="stop-color:#A4CDED"/>
		<stop  offset="1" style="stop-color:#A7D1F0"/>
	</linearGradient>
	<path fill="url(#SVGID_1_)" d="M211.1,62.8c0.1,0.7,0,1.3-0.3,1.8c-0.7,1.1-1.3,2.2-1.9,3.1c-0.5,0.9-0.8,1.7-1,2.3c0,0,0,0,0,0.1
		c0-0.1-0.1-0.2,0-1.1c0.1-1.2,0.3-2.3,0.5-3.5c0.1-0.3,0.2-1,0.4-1.7c0.1-0.4,0.4-1,0.7-1.6c0.3-0.7,0.8-1.4,1.3-2.2
		c0,0,0.1-0.1,0.1-0.1c0.1,0.1,0.1,0.1,0.1,0.6C211,61.2,211,62,211.1,62.8"/>
	<path fill="#94B0D6" d="M218.2,53.7c0.4,0.3,0.4,0.7,0,1.1c-2,2.3-4,4.8-5.6,7.1c-0.3,0.4-0.6,0.3-0.7-0.2
		c-0.1-0.7-0.2-1.5-0.2-2.2c0-0.5,0.2-1,0.4-1.4c1.1-1.6,2.5-3.3,3.9-4.9c0.2-0.2,0.5-0.4,0.9-0.3C217.2,53.2,217.7,53.5,218.2,53.7
		"/>
	
		<linearGradient id="SVGID_2_" gradientUnits="userSpaceOnUse" x1="208.675" y1="132.7231" x2="263.8138" y2="85.5294" gradientTransform="matrix(0.8043 -0.5942 0.5942 0.8043 -44.3381 123.5844)">
		<stop  offset="0" style="stop-color:#82B0DD"/>
		<stop  offset="0.303" style="stop-color:#2F1C7A"/>
		<stop  offset="0.3693" style="stop-color:#443C8F"/>
		<stop  offset="0.4762" style="stop-color:#6269AC"/>
		<stop  offset="0.5838" style="stop-color:#7B8FC5"/>
		<stop  offset="0.6905" style="stop-color:#8EACD8"/>
		<stop  offset="0.7961" style="stop-color:#9CC0E5"/>
		<stop  offset="0.8999" style="stop-color:#A4CDED"/>
		<stop  offset="1" style="stop-color:#A7D1F0"/>
	</linearGradient>
	<path fill="url(#SVGID_2_)" d="M212.9,68.7c0.3,0.8,0.3,1.4,0,2.1c-0.9,1.5-1.8,2.8-2.4,4.1c-0.6,1.2-1.1,2.2-1.3,3
		c0,0-0.1,0.1-0.1,0.1c-0.2-0.1-0.3-0.4-0.5-1c-0.3-1.2-0.5-2.3-0.6-3.5c-0.1-0.9-0.1-1.5,0-1.9c0.2-0.7,0.6-1.5,1.1-2.5
		c0.5-1,1.2-2.2,2-3.4c0.3-0.4,0.6-0.3,0.8,0.3C212.2,66.9,212.5,67.8,212.9,68.7"/>
	<path fill="#A1CEEF" d="M221,58.7c0.4,0.4,0.4,0.8,0.1,1.3c-2.1,2.5-4.2,5-5.9,7.5c-0.4,0.4-0.7,0.4-1.1-0.1
		c-0.4-0.7-0.7-1.4-0.9-2c-0.2-0.5-0.1-1,0.2-1.5c1.4-2,3.1-4.1,4.9-6.1c0.4-0.4,0.8-0.5,1.2-0.3C219.8,57.9,220.4,58.3,221,58.7"/>
	
		<linearGradient id="SVGID_3_" gradientUnits="userSpaceOnUse" x1="218.1888" y1="76.3988" x2="273.3346" y2="29.1991" gradientTransform="matrix(0.9858 -0.1682 0.1682 0.9858 -25.0578 41.0774)">
		<stop  offset="0" style="stop-color:#82B0DD"/>
		<stop  offset="0.303" style="stop-color:#2F1C7A"/>
		<stop  offset="0.3693" style="stop-color:#443C8F"/>
		<stop  offset="0.4762" style="stop-color:#6269AC"/>
		<stop  offset="0.5838" style="stop-color:#7B8FC5"/>
		<stop  offset="0.6905" style="stop-color:#8EACD8"/>
		<stop  offset="0.7961" style="stop-color:#9CC0E5"/>
		<stop  offset="0.8999" style="stop-color:#A4CDED"/>
		<stop  offset="1" style="stop-color:#A7D1F0"/>
	</linearGradient>
	<path fill="url(#SVGID_3_)" d="M234.1,45.1c0.8,0.2,1,0.5,0.6,0.9c-0.5,0.4-1,0.8-1.5,1.3c-2.1,1.8-4.3,4-6.4,6.3
		c-0.6,0.5-1.2,0.7-1.9,0.3c-0.8-0.5-1.5-0.9-2.2-1.2c-0.5-0.3-0.5-0.7-0.1-1.2c1.8-1.9,3.6-3.7,5.3-5.2c0.4-0.4,0.8-0.7,1.2-1
		c0.5-0.3,1.1-0.5,1.9-0.5C232,44.8,233,44.9,234.1,45.1"/>
	
		<linearGradient id="SVGID_4_" gradientUnits="userSpaceOnUse" x1="220.6911" y1="124.2959" x2="275.8381" y2="77.0951" gradientTransform="matrix(0.8704 -0.4923 0.4923 0.8704 -46.2442 97.4939)">
		<stop  offset="0" style="stop-color:#82B0DD"/>
		<stop  offset="0.303" style="stop-color:#2F1C7A"/>
		<stop  offset="0.3693" style="stop-color:#443C8F"/>
		<stop  offset="0.4762" style="stop-color:#6269AC"/>
		<stop  offset="0.5838" style="stop-color:#7B8FC5"/>
		<stop  offset="0.6905" style="stop-color:#8EACD8"/>
		<stop  offset="0.7961" style="stop-color:#9CC0E5"/>
		<stop  offset="0.8999" style="stop-color:#A4CDED"/>
		<stop  offset="1" style="stop-color:#A7D1F0"/>
	</linearGradient>
	<path fill="url(#SVGID_4_)" d="M217.3,75.1c0.5,0.8,0.6,1.5,0.3,2.2c-1.1,1.7-2.1,3.4-2.9,4.9c-0.7,1.3-1.2,2.4-1.5,3.4
		c-0.2,0.3-0.5,0.1-1.1-0.7c-0.7-1-1.3-2.1-1.8-3.2c-0.4-0.9-0.5-1.5-0.4-2c0.3-0.9,0.7-1.9,1.4-3.1c0.7-1.4,1.6-2.9,2.6-4.5
		c0.4-0.5,0.9-0.5,1.4,0.2C215.9,73.3,216.6,74.2,217.3,75.1"/>
	
		<linearGradient id="SVGID_5_" gradientUnits="userSpaceOnUse" x1="216.5842" y1="141.9654" x2="271.7263" y2="94.7689" gradientTransform="matrix(0.8043 -0.5942 0.5942 0.8043 -44.3381 123.5844)">
		<stop  offset="0" style="stop-color:#82B0DD"/>
		<stop  offset="0.303" style="stop-color:#2F1C7A"/>
		<stop  offset="0.3693" style="stop-color:#443C8F"/>
		<stop  offset="0.4762" style="stop-color:#6269AC"/>
		<stop  offset="0.5838" style="stop-color:#7B8FC5"/>
		<stop  offset="0.6905" style="stop-color:#8EACD8"/>
		<stop  offset="0.7961" style="stop-color:#9CC0E5"/>
		<stop  offset="0.8999" style="stop-color:#A4CDED"/>
		<stop  offset="1" style="stop-color:#A7D1F0"/>
	</linearGradient>
	<path fill="url(#SVGID_5_)" d="M230.9,57.7c0.6,0.6,0.7,1.3,0.2,2.1c-3,3.5-6,7.1-8.4,10.6c-0.6,0.6-1.2,0.6-1.8,0
		c-0.8-0.9-1.5-1.8-2.1-2.7c-0.4-0.7-0.5-1.4,0-2.1c2.3-3.1,4.9-6.5,7.7-9.6c0.6-0.6,1.3-0.7,1.9-0.3C229.2,56.3,230,57,230.9,57.7"
		/>
	
		<linearGradient id="SVGID_6_" gradientUnits="userSpaceOnUse" x1="228.2017" y1="155.5529" x2="283.3512" y2="108.35" gradientTransform="matrix(0.8043 -0.5942 0.5942 0.8043 -44.3381 123.5844)">
		<stop  offset="0" style="stop-color:#82B0DD"/>
		<stop  offset="0.303" style="stop-color:#2F1C7A"/>
		<stop  offset="0.3693" style="stop-color:#443C8F"/>
		<stop  offset="0.4762" style="stop-color:#6269AC"/>
		<stop  offset="0.5838" style="stop-color:#7B8FC5"/>
		<stop  offset="0.6905" style="stop-color:#8EACD8"/>
		<stop  offset="0.7961" style="stop-color:#9CC0E5"/>
		<stop  offset="0.8999" style="stop-color:#A4CDED"/>
		<stop  offset="1" style="stop-color:#A7D1F0"/>
	</linearGradient>
	<path fill="url(#SVGID_6_)" d="M254.2,42.9c0.7,0.6,0.8,1,0.3,1.5c-0.6,0.4-1.3,0.8-2,1.3c-2.6,1.7-5.3,3.8-8.1,6
		c-0.8,0.5-1.5,0.5-2.2-0.1c-0.8-0.8-1.6-1.6-2.4-2.3c-0.5-0.6-0.5-1.1,0.1-1.7c2.5-2,5-3.9,7.3-5.5c0.6-0.4,1.3-0.8,1.9-1.2
		c0.6-0.3,1.3-0.3,2.1,0.1C252.2,41.6,253.2,42.2,254.2,42.9"/>
	<path fill="#94B0D6" d="M272.5,41.3c0.5,0.5,0.5,0.9,0.1,1.2c-0.5,0.2-1.1,0.5-1.7,0.8c-2.2,1.1-4.5,2.4-6.9,3.9
		c-0.6,0.3-1.2,0.2-1.7-0.3c-0.6-0.7-1.1-1.4-1.7-2c-0.4-0.5-0.3-0.9,0.2-1.3c2.1-1.3,4.3-2.5,6.2-3.5c0.5-0.3,1.1-0.5,1.6-0.7
		c0.5-0.2,1.1-0.1,1.7,0.3C271.1,40.1,271.8,40.7,272.5,41.3"/>
	<path fill="#6D6B95" d="M236,37c0.5,0.3,0.6,0.7,0.2,0.9c-0.4,0.3-0.8,0.6-1.3,0.9c-1.6,1.2-3.3,2.6-5,4.1c-0.5,0.3-0.9,0.4-1.4,0
		c-0.6-0.5-1.1-0.9-1.6-1.4c-0.4-0.4-0.4-0.7,0-1.1c1.5-1.4,3.1-2.7,4.5-3.8c0.4-0.3,0.8-0.6,1.2-0.8c0.4-0.2,0.8-0.2,1.4,0
		C234.7,36.2,235.3,36.6,236,37"/>
	<path fill="#A1CEEF" d="M247.9,37.8c0.4,0.4,0.5,0.7,0.1,1c-0.4,0.2-0.9,0.5-1.3,0.8c-1.7,1-3.5,2.3-5.4,3.6
		c-0.5,0.3-1,0.3-1.4-0.1c-0.5-0.5-1-1.1-1.5-1.5c-0.3-0.4-0.3-0.7,0.1-1.1c1.7-1.2,3.3-2.4,4.9-3.3c0.4-0.3,0.8-0.5,1.2-0.7
		c0.4-0.2,0.9-0.1,1.4,0.1C246.7,37,247.3,37.4,247.9,37.8"/>
	<path fill="#A1CEEF" d="M249.9,48.9c0.5,0.3,0.6,0.6,0.3,0.9c-0.4,0.3-0.8,0.6-1.2,1c-1.6,1.2-3.2,2.7-4.9,4.3
		c-0.5,0.4-0.9,0.4-1.4,0.1c-0.6-0.5-1.1-0.9-1.7-1.3c-0.4-0.3-0.4-0.7,0-1.1c1.5-1.4,3-2.8,4.4-3.9c0.4-0.3,0.8-0.6,1.1-0.9
		c0.4-0.2,0.8-0.2,1.4,0C248.5,48.2,249.2,48.5,249.9,48.9"/>
	<path fill="#6D6B95" d="M252.5,33.2c0.5,0.5,0.5,0.9,0.1,1.2c-0.6,0.3-1.2,0.5-1.8,0.9c-2.3,1.1-4.7,2.5-7.2,4.1
		c-0.7,0.3-1.3,0.2-1.8-0.3c-0.6-0.7-1.2-1.4-1.7-2.1c-0.4-0.5-0.3-1,0.2-1.4c2.2-1.4,4.5-2.6,6.5-3.7c0.6-0.3,1.1-0.5,1.6-0.8
		c0.5-0.2,1.1-0.1,1.7,0.3C251,31.9,251.7,32.5,252.5,33.2"/>
	<path fill="#6A9BC6" d="M230.8,86.9c0.8,0.6,1.1,1.1,0.7,1.8c-1,1.5-1.8,2.9-2.5,4.2c-0.7,1.4-1.2,2.5-1.5,3.4
		c-0.2,0.3-0.8,0.3-1.7,0c-1.2-0.5-2.4-1.1-3.5-1.7c-0.9-0.5-1.3-1-1.2-1.5c0.3-1,0.8-2.2,1.6-3.7c0.7-1.4,1.6-2.9,2.7-4.5
		c0.5-0.6,1.2-0.6,2.1-0.1C228.5,85.6,229.6,86.3,230.8,86.9"/>
	
		<linearGradient id="SVGID_7_" gradientUnits="userSpaceOnUse" x1="226.3364" y1="153.3576" x2="281.476" y2="106.1631" gradientTransform="matrix(0.8043 -0.5942 0.5942 0.8043 -44.3381 123.5844)">
		<stop  offset="0" style="stop-color:#82B0DD"/>
		<stop  offset="0.303" style="stop-color:#2F1C7A"/>
		<stop  offset="0.3693" style="stop-color:#443C8F"/>
		<stop  offset="0.4762" style="stop-color:#6269AC"/>
		<stop  offset="0.5838" style="stop-color:#7B8FC5"/>
		<stop  offset="0.6905" style="stop-color:#8EACD8"/>
		<stop  offset="0.7961" style="stop-color:#9CC0E5"/>
		<stop  offset="0.8999" style="stop-color:#A4CDED"/>
		<stop  offset="1" style="stop-color:#A7D1F0"/>
	</linearGradient>
	<path fill="url(#SVGID_7_)" d="M244.2,69.7c0.7,0.7,0.7,1.4,0.2,2.2c-2.9,3.3-5.6,6.8-8,10.1c-0.6,0.6-1.3,0.7-2.1,0.3
		c-1.1-0.7-2.2-1.4-3.3-2.1c-0.8-0.7-1-1.3-0.5-2.1c2.5-3.5,5.4-7.2,8.5-10.8c0.7-0.6,1.4-0.7,2.3-0.1
		C242.3,68,243.2,68.9,244.2,69.7"/>
	<path fill="#001C5B" d="M257,57.9c0.5,0.9,0.5,1.5,0.1,2c-0.4,0.4-0.9,0.8-1.4,1.2c-2.3,2.1-4.8,4.5-7.2,7.1
		c-0.7,0.6-1.3,0.6-2.1-0.1c-0.9-0.9-1.9-1.8-2.8-2.7c-0.7-0.8-0.7-1.5-0.2-2.2c2.6-2.8,5.3-5.4,7.8-7.7c0.5-0.5,1-0.9,1.5-1.3
		c0.6-0.4,1.3-0.2,2,0.5C255.5,55.9,256.3,56.9,257,57.9"/>
	
		<linearGradient id="SVGID_8_" gradientUnits="userSpaceOnUse" x1="216.3874" y1="141.7383" x2="271.5317" y2="94.5398" gradientTransform="matrix(0.8043 -0.5942 0.5942 0.8043 -44.3381 123.5844)">
		<stop  offset="0" style="stop-color:#82B0DD"/>
		<stop  offset="0.303" style="stop-color:#2F1C7A"/>
		<stop  offset="0.3693" style="stop-color:#443C8F"/>
		<stop  offset="0.4762" style="stop-color:#6269AC"/>
		<stop  offset="0.5838" style="stop-color:#7B8FC5"/>
		<stop  offset="0.6905" style="stop-color:#8EACD8"/>
		<stop  offset="0.7961" style="stop-color:#9CC0E5"/>
		<stop  offset="0.8999" style="stop-color:#A4CDED"/>
		<stop  offset="1" style="stop-color:#A7D1F0"/>
	</linearGradient>
	<path fill="url(#SVGID_8_)" d="M223.5,81.9c0.8,0.7,0.9,1.4,0.6,2.1c-1,1.6-1.9,3.2-2.7,4.6c-0.8,1.5-1.3,2.7-1.6,3.7
		c-0.2,0.3-0.7,0.2-1.5-0.4c-0.2-0.2-0.5-0.4-0.7-0.6c-0.8-0.7-1.5-1.4-2.2-2.1c-0.7-0.8-1-1.4-0.9-1.8c0.3-1,0.8-2.2,1.6-3.7
		c0.7-1.4,1.6-2.9,2.7-4.5c0.5-0.6,1.1-0.6,1.8,0c0.7,0.7,1.5,1.4,2.3,2.1C223,81.6,223.3,81.8,223.5,81.9"/>
	
		<linearGradient id="SVGID_9_" gradientUnits="userSpaceOnUse" x1="219.926" y1="145.8648" x2="275.0619" y2="98.6736" gradientTransform="matrix(0.8043 -0.5942 0.5942 0.8043 -44.3381 123.5844)">
		<stop  offset="0" style="stop-color:#82B0DD"/>
		<stop  offset="0.303" style="stop-color:#2F1C7A"/>
		<stop  offset="0.3693" style="stop-color:#443C8F"/>
		<stop  offset="0.4762" style="stop-color:#6269AC"/>
		<stop  offset="0.5838" style="stop-color:#7B8FC5"/>
		<stop  offset="0.6905" style="stop-color:#8EACD8"/>
		<stop  offset="0.7961" style="stop-color:#9CC0E5"/>
		<stop  offset="0.8999" style="stop-color:#A4CDED"/>
		<stop  offset="1" style="stop-color:#A7D1F0"/>
	</linearGradient>
	<path fill="url(#SVGID_9_)" d="M232.2,71.2c0.5,0.5,0.6,1.1,0.2,1.6c-2.2,2.6-4.3,5.2-6.1,7.8c-0.4,0.5-0.9,0.5-1.5,0.1
		c-0.2-0.1-0.3-0.3-0.5-0.4c-0.6-0.5-1.1-1-1.6-1.5c-0.5-0.5-0.5-1.1-0.2-1.6c1.8-2.5,3.9-5.1,6.1-7.7c0.5-0.5,1-0.5,1.6-0.1
		c0.5,0.4,1.1,0.9,1.7,1.4C231.8,70.9,232,71,232.2,71.2"/>
	<path fill="#94B0D6" d="M242.6,58c0.7,0.7,0.8,1.3,0.3,1.9c-0.5,0.4-1,0.8-1.5,1.3c-2.5,2.2-5.2,4.9-7.8,7.7
		c-0.7,0.6-1.5,0.6-2.3,0c-0.2-0.2-0.5-0.4-0.7-0.6c-0.8-0.7-1.6-1.3-2.3-1.9c-0.7-0.7-0.8-1.4-0.2-2.1c2.6-2.8,5.2-5.4,7.7-7.6
		c0.5-0.5,1-0.9,1.5-1.3c0.6-0.4,1.4-0.4,2.2,0.2c0.8,0.6,1.6,1.2,2.4,1.9C242.1,57.6,242.4,57.8,242.6,58"/>
	<path fill="#6A9BC6" d="M238.4,90.5c0.8,0.4,1.1,0.8,0.9,1.3c-0.8,1.2-1.5,2.4-2.1,3.5c-0.6,1.1-1,2.1-1.3,2.9
		c-0.2,0.3-0.8,0.4-1.7,0.4c-1.3-0.1-2.5-0.3-3.8-0.6c-1-0.3-1.4-0.6-1.4-1c0.3-0.9,0.8-2,1.5-3.4c0.7-1.3,1.5-2.7,2.4-4.1
		c0.5-0.6,1.1-0.7,2.1-0.3C236.2,89.6,237.3,90.1,238.4,90.5"/>
	<path fill="#001C5B" d="M247.7,78.5c0.6,0.7,0.6,1.3,0.2,1.9c-2.4,2.8-4.7,5.6-6.6,8.4c-0.5,0.5-1.1,0.6-2,0.4
		c-1.1-0.4-2.2-0.9-3.3-1.5c-0.8-0.5-1-1.1-0.7-1.7c2.3-3.2,4.9-6.6,7.7-9.8c0.6-0.6,1.3-0.6,2,0C246.1,76.9,246.9,77.7,247.7,78.5"
		/>
	<path fill="#A1CEEF" d="M260,66.7c0.3,0.9,0.3,1.5-0.1,2c-0.4,0.3-0.7,0.6-1.1,1c-1.9,1.7-4,3.8-6,6c-0.6,0.5-1.1,0.4-1.8-0.2
		c-0.8-0.8-1.6-1.7-2.4-2.6c-0.6-0.7-0.6-1.4-0.1-2.1c2.4-2.6,4.8-5,7.1-7c0.5-0.4,0.9-0.8,1.3-1.2c0.6-0.3,1.1-0.1,1.6,0.7
		C259,64.5,259.5,65.6,260,66.7"/>
	
		<linearGradient id="SVGID_10_" gradientUnits="userSpaceOnUse" x1="252.0184" y1="98.5936" x2="272.0434" y2="94.703" gradientTransform="matrix(0.9858 -0.1682 0.1682 0.9858 -25.0578 41.0774)">
		<stop  offset="0" style="stop-color:#82B0DD"/>
		<stop  offset="0.303" style="stop-color:#2F1C7A"/>
		<stop  offset="0.3693" style="stop-color:#443C8F"/>
		<stop  offset="0.4762" style="stop-color:#6269AC"/>
		<stop  offset="0.5838" style="stop-color:#7B8FC5"/>
		<stop  offset="0.6905" style="stop-color:#8EACD8"/>
		<stop  offset="0.7961" style="stop-color:#9CC0E5"/>
		<stop  offset="0.8999" style="stop-color:#A4CDED"/>
		<stop  offset="1" style="stop-color:#A7D1F0"/>
	</linearGradient>
	<path fill="url(#SVGID_10_)" d="M245.9,92.3c1,0.2,1,0.5,0.9,0.7c-0.6,0.9-1.1,1.7-1.5,2.5c-0.4,0.8-0.7,1.5-0.9,2
		c-0.2,0.2-0.7,0.5-1.6,0.6c-1.2,0.2-2.5,0.4-3.7,0.4c-1,0-1.4-0.1-1.5-0.4c0.2-0.7,0.6-1.7,1.2-2.7c0.5-1,1.2-2.1,2-3.3
		c0.4-0.5,1-0.6,1.9-0.4C243.8,92,244.8,92.2,245.9,92.3"/>
	
		<linearGradient id="SVGID_11_" gradientUnits="userSpaceOnUse" x1="243.4493" y1="150.8804" x2="298.5869" y2="103.6877" gradientTransform="matrix(0.8704 -0.4923 0.4923 0.8704 -46.2442 97.4939)">
		<stop  offset="0" style="stop-color:#82B0DD"/>
		<stop  offset="0.303" style="stop-color:#2F1C7A"/>
		<stop  offset="0.3693" style="stop-color:#443C8F"/>
		<stop  offset="0.4762" style="stop-color:#6269AC"/>
		<stop  offset="0.5838" style="stop-color:#7B8FC5"/>
		<stop  offset="0.6905" style="stop-color:#8EACD8"/>
		<stop  offset="0.7961" style="stop-color:#9CC0E5"/>
		<stop  offset="0.8999" style="stop-color:#A4CDED"/>
		<stop  offset="1" style="stop-color:#A7D1F0"/>
	</linearGradient>
	<path fill="url(#SVGID_11_)" d="M252.7,83.5c0.4,0.5,0.5,1,0.2,1.5c-1.7,2-3.3,4-4.7,5.9c-0.4,0.4-0.9,0.5-1.7,0.4
		c-1-0.2-2-0.5-3.1-0.8c-0.8-0.3-1-0.7-0.7-1.3c1.8-2.6,4-5.3,6.3-7.9c0.5-0.5,1.1-0.4,1.7,0.1C251.4,82.1,252.1,82.9,252.7,83.5"/>
	
		<linearGradient id="SVGID_12_" gradientUnits="userSpaceOnUse" x1="238.4582" y1="167.5248" x2="293.6033" y2="120.3256" gradientTransform="matrix(0.8043 -0.5942 0.5942 0.8043 -44.3381 123.5844)">
		<stop  offset="0" style="stop-color:#82B0DD"/>
		<stop  offset="0.303" style="stop-color:#2F1C7A"/>
		<stop  offset="0.3693" style="stop-color:#443C8F"/>
		<stop  offset="0.4762" style="stop-color:#6269AC"/>
		<stop  offset="0.5838" style="stop-color:#7B8FC5"/>
		<stop  offset="0.6905" style="stop-color:#8EACD8"/>
		<stop  offset="0.7961" style="stop-color:#9CC0E5"/>
		<stop  offset="0.8999" style="stop-color:#A4CDED"/>
		<stop  offset="1" style="stop-color:#A7D1F0"/>
	</linearGradient>
	<path fill="url(#SVGID_12_)" d="M260.4,76c0.1,0.9,0,1.5-0.3,1.8c-0.3,0.2-0.5,0.5-0.8,0.7c-1.4,1.2-2.8,2.7-4.3,4.2
		c-0.2,0.2-0.6,0.4-1.3-0.3c-0.6-0.7-1.2-1.5-1.9-2.3c-0.5-0.7-0.5-1.3-0.1-1.8c1.9-2.1,3.9-4,5.7-5.6c0.4-0.3,0.7-0.6,1.1-0.9
		c0.4-0.3,0.8,0,1.1,0.9C260,73.8,260.2,74.9,260.4,76"/>
	
		<linearGradient id="SVGID_13_" gradientUnits="userSpaceOnUse" x1="252.3921" y1="100.517" x2="272.4171" y2="96.6264" gradientTransform="matrix(0.9858 -0.1682 0.1682 0.9858 -25.0578 41.0774)">
		<stop  offset="0" style="stop-color:#82B0DD"/>
		<stop  offset="0.303" style="stop-color:#2F1C7A"/>
		<stop  offset="0.3693" style="stop-color:#443C8F"/>
		<stop  offset="0.4762" style="stop-color:#6269AC"/>
		<stop  offset="0.5838" style="stop-color:#7B8FC5"/>
		<stop  offset="0.6905" style="stop-color:#8EACD8"/>
		<stop  offset="0.7961" style="stop-color:#9CC0E5"/>
		<stop  offset="0.8999" style="stop-color:#A4CDED"/>
		<stop  offset="1" style="stop-color:#A7D1F0"/>
	</linearGradient>
	<path fill="url(#SVGID_13_)" d="M252.6,92.4c0.7-0.1,0.9,0,0.9,0c0,0,0,0,0,0.1c-0.3,0.4-0.5,0.8-0.7,1.2c-0.2,0.4-0.4,0.7-0.4,1
		c0,0-0.3,0.3-1.4,0.9c-1.1,0.6-2.3,1.1-3.4,1.5c-0.4,0.1-1.1,0.4-1.4,0.2c0,0,0,0,0,0c0.2-0.5,0.4-1.1,0.8-1.8
		c0.4-0.7,0.8-1.5,1.3-2.2c0.3-0.3,0.8-0.5,1.6-0.5C250.8,92.6,251.7,92.5,252.6,92.4"/>
	
		<linearGradient id="SVGID_14_" gradientUnits="userSpaceOnUse" x1="238.3517" y1="167.4026" x2="293.5011" y2="120.1998" gradientTransform="matrix(0.8043 -0.5942 0.5942 0.8043 -44.3381 123.5844)">
		<stop  offset="0" style="stop-color:#82B0DD"/>
		<stop  offset="0.303" style="stop-color:#2F1C7A"/>
		<stop  offset="0.3693" style="stop-color:#443C8F"/>
		<stop  offset="0.4762" style="stop-color:#6269AC"/>
		<stop  offset="0.5838" style="stop-color:#7B8FC5"/>
		<stop  offset="0.6905" style="stop-color:#8EACD8"/>
		<stop  offset="0.7961" style="stop-color:#9CC0E5"/>
		<stop  offset="0.8999" style="stop-color:#A4CDED"/>
		<stop  offset="1" style="stop-color:#A7D1F0"/>
	</linearGradient>
	<path fill="url(#SVGID_14_)" d="M256.3,87.6c0.3,0.4,0.3,0.7,0.2,0.9c-0.8,1-1.6,2-2.3,2.9c-0.1,0.1-0.5,0.3-1.3,0.4
		c-0.8,0.1-1.7,0.1-2.7,0c-0.7-0.1-1-0.3-0.8-0.7c1.2-1.7,2.7-3.6,4.2-5.4c0.4-0.3,0.7-0.3,1.2,0.2
		C255.5,86.5,255.9,87.1,256.3,87.6"/>
	
		<linearGradient id="SVGID_15_" gradientUnits="userSpaceOnUse" x1="248.9022" y1="157.2604" x2="304.0521" y2="110.0571" gradientTransform="matrix(0.8704 -0.4923 0.4923 0.8704 -46.2442 97.4939)">
		<stop  offset="0" style="stop-color:#82B0DD"/>
		<stop  offset="0.303" style="stop-color:#2F1C7A"/>
		<stop  offset="0.3693" style="stop-color:#443C8F"/>
		<stop  offset="0.4762" style="stop-color:#6269AC"/>
		<stop  offset="0.5838" style="stop-color:#7B8FC5"/>
		<stop  offset="0.6905" style="stop-color:#8EACD8"/>
		<stop  offset="0.7961" style="stop-color:#9CC0E5"/>
		<stop  offset="0.8999" style="stop-color:#A4CDED"/>
		<stop  offset="1" style="stop-color:#A7D1F0"/>
	</linearGradient>
	<path fill="url(#SVGID_15_)" d="M260.4,83.5c-0.2,1-0.4,1.4-0.5,1.5c-0.1,0.1-0.3,0.2-0.4,0.3c-0.7,0.6-1.4,1.3-2.1,2.1
		c-0.1,0.1-0.3,0.1-0.7-0.4c-0.3-0.6-0.7-1.2-1.2-1.8c-0.2-0.4-0.4-0.9-0.1-1.4c1.3-1.4,2.6-2.7,3.9-3.8c0.3-0.2,0.5-0.4,0.7-0.6
		c0.3-0.1,0.5,0.2,0.5,1C260.7,81.4,260.6,82.5,260.4,83.5"/>
	<path fill="#94B0D6" d="M266.1,54.7C266.1,54.7,266,54.7,266.1,54.7c-1.1-0.1-2.8,0.7-5.2,2.4c-0.6,0.3-1.2,0.1-2-0.6
		c-0.2-0.2-2.3-1.9-3.1-2.5c-0.8-0.6-0.9-1.1-0.5-1.5c2.4-1.7,4.1-2.4,5.1-2.3c1.1,0.4,4.6,3.2,4.8,3.4"/>
	<path fill="#94B0D6" d="M267.1,63c0.2,0.9,0.2,1.4,0.1,1.5c-0.8-0.1-2.1,0.5-4,1.8c-0.4,0.2-0.8-0.1-1.1-1
		c-0.4-1.2-0.9-2.3-1.5-3.4c-0.4-0.9-0.4-1.5,0-1.9c2.1-1.5,3.7-2.2,4.6-2.1c0.2,0.1,0.5,0.6,0.9,1.5
		C266.5,60.5,266.8,61.8,267.1,63"/>
	<path fill="#001C5B" d="M264.8,73.8c-0.1,1.2-0.3,1.5-0.3,1.5c-0.6-0.1-1.5,0.4-2.8,1.3c-0.2,0.1-0.4,0-0.6-1.1
		c-0.1-1.2-0.3-2.3-0.6-3.5c-0.2-1-0.1-1.6,0.2-1.9c1.7-1.2,3-1.8,3.8-1.7c0.2,0.1,0.3,0.7,0.4,1.6
		C264.9,71.2,264.9,72.5,264.8,73.8"/>
	<path fill="#001C5B" d="M262.8,82.3c-0.5,1.3-0.7,1.5-0.7,1.5c-0.3,0-0.7,0.2-1.4,0.6c0,0,0,0-0.1,0c0-0.2,0-0.4,0.1-1.1
		c0.2-1.1,0.3-2.2,0.4-3.3c0.1-0.9,0.2-1.5,0.4-1.7c1.2-0.8,2-1.2,2.5-1.2c0,0.1,0.1,0.4-0.2,1.6C263.7,79.8,263.3,81.1,262.8,82.3"
		/>
	
		<linearGradient id="SVGID_16_" gradientUnits="userSpaceOnUse" x1="225.9323" y1="108.6506" x2="329.3073" y2="85.4113" gradientTransform="matrix(0.8043 -0.5942 0.5942 0.8043 -44.3379 123.5844)">
		<stop  offset="0" style="stop-color:#009ADA"/>
		<stop  offset="0.303" style="stop-color:#001A5A"/>
		<stop  offset="0.3281" style="stop-color:#082564"/>
		<stop  offset="0.442" style="stop-color:#2B528B"/>
		<stop  offset="0.5567" style="stop-color:#4878AC"/>
		<stop  offset="0.6703" style="stop-color:#5E95C6"/>
		<stop  offset="0.7827" style="stop-color:#6EA9D8"/>
		<stop  offset="0.8933" style="stop-color:#78B6E3"/>
		<stop  offset="1" style="stop-color:#7BBAE7"/>
	</linearGradient>
	<path fill="url(#SVGID_16_)" d="M207.8,69.6c0,0.3-0.1,0.9-0.1,1.7c0-0.6,0.1-1.5,0.1-2.1l0-0.3C207.8,69,207.8,69.3,207.8,69.6"/>
	<path fill="#001C5B" d="M211.9,85.9c0.5,0.9,0.8,1.4,0.9,1.8c0,0.4,0.1,0.8,0.2,1c-0.4-0.6-0.9-1.4-1.3-2c-1.4-2.6-1.4-2.6-2-4.1
		l-0.1-0.3c-0.1-0.2-0.1-0.4-0.1-0.7c0,0,0,0,0-0.1c0.1,0.1,0.2,0.1,0.6,1.1C210.7,83.7,211.2,84.8,211.9,85.9"/>
	<path fill="#001C5B" d="M225.7,97.3c0.9,0.4,1.4,0.7,1.5,1c0,0.6,0.3,1,0.7,1.1c-1.2-0.4-2.7-1-3.8-1.5c-0.8-0.5-2-1-2.8-1.5
		c-0.3-0.2-0.5-0.6-0.5-1.1c0,0,0,0,0-0.1c0.2-0.1,0.6,0.1,1.4,0.5C223.3,96.3,224.5,96.8,225.7,97.3"/>
	<path fill="#001C5B" d="M218.1,92.9c0.8,0.7,1.2,1.1,1.3,1.4c0,0.5,0.2,0.9,0.5,1.1c-0.6-0.5-1.5-1.1-2.1-1.6
		c-2.3-2.1-2.3-2.1-3.4-3.4l-0.1-0.1c-0.2-0.2-0.3-0.5-0.3-0.9c0,0,0,0,0-0.1c0.2,0,0.5,0.2,1.1,0.8c0.7,0.7,1.4,1.4,2.2,2.1
		C217.6,92.6,217.9,92.7,218.1,92.9"/>
	<path fill="#001C5B" d="M234.1,99.3c1,0.1,1.5,0.2,1.6,0.4c0,0.7,0.4,1,1,1c-1.2,0-2.7-0.1-3.8-0.2c-1-0.2-2.3-0.4-3.3-0.6
		c-0.5-0.1-0.7-0.5-0.8-1.1c0.1-0.2,0.6-0.2,1.6,0C231.6,99,232.9,99.2,234.1,99.3"/>
	<path fill="#001C5B" d="M242.7,98.8c1.2-0.2,1.5-0.2,1.5-0.1c0,0.7,0.5,0.9,1.3,0.6c-1.1,0.3-2.5,0.7-3.6,0.9
		c-1.1,0.2-2.5,0.4-3.5,0.4c-0.6,0-1-0.3-1-0.9c0.1-0.2,0.6-0.3,1.6-0.4C240.2,99.2,241.5,99.1,242.7,98.8"/>
	<path fill="#001C5B" d="M250.9,95.9c1.1-0.6,1.2-0.6,1.4-0.7c0,0.3,0.3,0.4,0.7,0.3c-0.1,0.1-0.3,0.3-1.1,0.8c-1,0.7-2,1.2-3.1,1.7
		c-0.6,0.3-1.2,0.5-1.6,0.7c-0.8,0.3-1.2,0.1-1.2-0.5c0.1-0.1,0.5-0.3,1.5-0.7C248.6,97,249.8,96.5,250.9,95.9"/>
	<path fill="#001C5B" d="M254.3,93.6c0.4,0.4,2.4-1,4.3-3.2c2-2.2,3.2-4.2,2.8-4.6c-0.4-0.4-2.4,1-4.3,3.2
		C255.2,91.1,253.9,93.2,254.3,93.6z"/>
</g>
<linearGradient id="SVGID_17_" gradientUnits="userSpaceOnUse" x1="-15.64" y1="72.4387" x2="174.5121" y2="69.4084">
	<stop  offset="0" style="stop-color:#82B0DD"/>
	<stop  offset="0.303" style="stop-color:#2F1C7A"/>
	<stop  offset="0.3693" style="stop-color:#443C8F"/>
	<stop  offset="0.4762" style="stop-color:#6269AC"/>
	<stop  offset="0.5838" style="stop-color:#7B8FC5"/>
	<stop  offset="0.6905" style="stop-color:#8EACD8"/>
	<stop  offset="0.7961" style="stop-color:#9CC0E5"/>
	<stop  offset="0.8999" style="stop-color:#A4CDED"/>
	<stop  offset="1" style="stop-color:#A7D1F0"/>
</linearGradient>
<polygon fill="url(#SVGID_17_)" points="68,85 68,77.1 92.7,77.1 92.7,65.1 68,65.1 68,57.6 94.2,57.6 94.2,45.2 54.5,45.2 
	53.4,45.2 9.3,45.2 9.3,57.4 24.5,57.4 24.5,97.5 39.2,97.5 39.2,57.4 53.4,57.4 53.4,97.5 95.2,97.5 95.2,85 "/>
<linearGradient id="SVGID_18_" gradientUnits="userSpaceOnUse" x1="40.6793" y1="72.6622" x2="134.0677" y2="71.1739">
	<stop  offset="0" style="stop-color:#82B0DD"/>
	<stop  offset="0.303" style="stop-color:#2F1C7A"/>
	<stop  offset="0.3693" style="stop-color:#443C8F"/>
	<stop  offset="0.4762" style="stop-color:#6269AC"/>
	<stop  offset="0.5838" style="stop-color:#7B8FC5"/>
	<stop  offset="0.6905" style="stop-color:#8EACD8"/>
	<stop  offset="0.7961" style="stop-color:#9CC0E5"/>
	<stop  offset="0.8999" style="stop-color:#A4CDED"/>
	<stop  offset="1" style="stop-color:#A7D1F0"/>
</linearGradient>
<path fill="url(#SVGID_18_)" d="M144.8,46.1l-21.2,24.7c7.3,8.1,15.8,17.5,23,25.8v0.9h-18.3l-14.9-17.4v17.4H98.6V45.2h14.8v17.2
	c4.5-5.5,9.3-11.6,13.7-17.2h17.7V46.1z"/>
<linearGradient id="SVGID_19_" gradientUnits="userSpaceOnUse" x1="126.6056" y1="71.4315" x2="314.2263" y2="71.4315">
	<stop  offset="0" style="stop-color:#82B0DD"/>
	<stop  offset="0.303" style="stop-color:#2F1C7A"/>
	<stop  offset="0.3693" style="stop-color:#443C8F"/>
	<stop  offset="0.4762" style="stop-color:#6269AC"/>
	<stop  offset="0.5838" style="stop-color:#7B8FC5"/>
	<stop  offset="0.6905" style="stop-color:#8EACD8"/>
	<stop  offset="0.7961" style="stop-color:#9CC0E5"/>
	<stop  offset="0.8999" style="stop-color:#A4CDED"/>
	<stop  offset="1" style="stop-color:#A7D1F0"/>
</linearGradient>
<path fill="url(#SVGID_19_)" d="M198.4,81c-3.7,3.8-8.8,5.3-12.3,5.3c-10.3,0-13.9-7.7-14-14.5c-0.1-6.8,3.9-15,14-15
	c3.5,0,7.4,1,11.1,4.6l9.1-9c-5.9-5.7-12.7-8.4-20.2-8.4c-16.9,0-25.9,10.6-28.1,22.1h-17v5.6V77h16.9c1.9,11.9,10.2,21.8,28.2,21.8
	c7.9,0,15.1-2.3,21-8.1L198.4,81z"/>
<linearGradient id="SVGID_20_" gradientUnits="userSpaceOnUse" x1="146.7021" y1="71.3568" x2="287.4561" y2="71.3568">
	<stop  offset="0" style="stop-color:#82B0DD"/>
	<stop  offset="0.303" style="stop-color:#2F1C7A"/>
	<stop  offset="0.3693" style="stop-color:#443C8F"/>
	<stop  offset="0.4762" style="stop-color:#6269AC"/>
	<stop  offset="0.5838" style="stop-color:#7B8FC5"/>
	<stop  offset="0.6905" style="stop-color:#8EACD8"/>
	<stop  offset="0.7961" style="stop-color:#9CC0E5"/>
	<stop  offset="0.8999" style="stop-color:#A4CDED"/>
	<stop  offset="1" style="stop-color:#A7D1F0"/>
</linearGradient>
<path fill="url(#SVGID_20_)" d="M322.4,66.4L309,82.2h-2.6l-13.1-15.8v31.1h-14.6V45.2h15.5l13.7,17.7l13.7-17.7H337v52.3h-14.6
	V66.4z"/>
<g>
	<path fill="#00548F" d="M28.9,113.9c0,0.1,0,0.1-0.1,0.1h-1.5c-0.1,0-0.1,0-0.1-0.1v-6.6c0-0.1,0-0.1-0.1-0.1h-1.9
		c-0.1,0-0.1,0-0.1-0.1v-1.3c0-0.1,0-0.1,0.1-0.1H31c0.1,0,0.1,0,0.1,0.1v1.3c0,0.1,0,0.1-0.1,0.1h-1.9c-0.1,0-0.1,0-0.1,0.1V113.9z
		"/>
	<path fill="#00548F" d="M37.4,111.7c0,0.1,0,0.2,0.1,0.3c0.1,0.1,0.1,0.2,0.3,0.3c0.1,0.1,0.2,0.1,0.4,0.2c0.1,0,0.3,0.1,0.5,0.1
		h2.8c0.1,0,0.1,0,0.1,0.1v1.2c0,0.1,0,0.1-0.1,0.1h-2c-0.7,0-1.2-0.1-1.6-0.2c-0.4-0.1-0.8-0.3-1.1-0.5c-0.3-0.2-0.5-0.5-0.6-0.9
		s-0.2-0.8-0.2-1.3c0-0.6,0.1-1.1,0.3-1.5c0.2-0.4,0.4-0.7,0.7-1s0.7-0.4,1-0.5s0.8-0.1,1.2-0.1c0.5,0,0.9,0.1,1.2,0.2
		c0.4,0.1,0.6,0.3,0.9,0.5c0.2,0.2,0.4,0.5,0.5,0.8c0.1,0.3,0.2,0.6,0.2,1v1.2c0,0.1,0,0.1-0.1,0.1h-4.3
		C37.4,111.6,37.4,111.7,37.4,111.7z M40.5,110.3c0.1,0,0.1,0,0.1-0.1c0-0.3-0.1-0.5-0.4-0.7s-0.7-0.3-1.1-0.3c-0.2,0-0.3,0-0.5,0.1
		c-0.2,0-0.4,0.1-0.5,0.2c-0.2,0.1-0.3,0.2-0.4,0.3c-0.1,0.1-0.2,0.3-0.2,0.4c0,0.1,0,0.1,0.1,0.1H40.5z"/>
	<path fill="#00548F" d="M52.8,112.6c0.1,0,0.1,0,0.1,0.1v1.2c0,0.1,0,0.1-0.1,0.1h-2.2c-0.4,0-0.8-0.1-1.1-0.2
		c-0.3-0.2-0.6-0.4-0.9-0.6s-0.4-0.5-0.5-0.8s-0.2-0.6-0.2-0.9v-1c0-0.4,0.1-0.8,0.2-1.1s0.3-0.6,0.5-0.8s0.5-0.4,0.9-0.5
		c0.4-0.1,0.8-0.2,1.3-0.2h2c0.1,0,0.1,0,0.1,0.1v1.2c0,0.1,0,0.1-0.1,0.1h-2.2c-0.5,0-0.8,0.1-1,0.4c-0.2,0.3-0.3,0.6-0.3,1v0.5
		c0,0.4,0.1,0.7,0.3,1c0.2,0.2,0.6,0.4,1,0.4H52.8z"/>
	<path fill="#00548F" d="M60.6,113.6c0,0.3-0.1,0.4-0.3,0.4h-0.8c-0.1,0-0.2,0-0.2-0.1c-0.1-0.1-0.1-0.2-0.1-0.3v-4.8
		c0-0.2,0.1-0.4,0.2-0.5c0.2-0.2,0.4-0.2,0.6-0.2h2.6c0.3,0,0.5,0.1,0.8,0.2c0.2,0.1,0.5,0.3,0.6,0.4c0.2,0.2,0.3,0.4,0.4,0.6
		c0.1,0.2,0.2,0.5,0.2,0.7v4c0,0.1,0,0.1-0.1,0.1h-1.2c-0.1,0-0.1,0-0.1-0.1v-3.7c0-0.2,0-0.4-0.1-0.5c-0.1-0.1-0.1-0.2-0.2-0.3
		c-0.1-0.1-0.2-0.1-0.4-0.1s-0.3,0-0.5,0h-1.1c-0.1,0-0.2,0-0.2,0.1c-0.1,0.1-0.1,0.1-0.1,0.2V113.6z"/>
	<path fill="#00548F" d="M76.6,111.6c0,0.5,0,0.9-0.1,1.2c-0.1,0.3-0.2,0.5-0.4,0.7s-0.4,0.3-0.6,0.4c-0.3,0.1-0.6,0.1-0.9,0.1h-2.1
		c-0.4,0-0.7-0.1-0.9-0.2c-0.2-0.1-0.4-0.3-0.6-0.5c-0.1-0.2-0.2-0.4-0.3-0.7c-0.1-0.3-0.1-0.5-0.1-0.8v-2.1c0-0.3,0-0.5,0.1-0.8
		c0.1-0.2,0.2-0.4,0.4-0.6c0.2-0.2,0.4-0.3,0.6-0.4c0.2-0.1,0.5-0.1,0.7-0.1h2.4c0.2,0,0.4,0,0.6,0.1c0.2,0.1,0.4,0.2,0.6,0.3
		c0.2,0.2,0.3,0.3,0.4,0.5c0.1,0.2,0.2,0.5,0.2,0.7V111.6z M75.2,109.9c0-0.1,0-0.2-0.1-0.3c-0.1-0.1-0.1-0.1-0.2-0.2
		c-0.1-0.1-0.2-0.1-0.3-0.1c-0.1,0-0.2,0-0.4,0h-1.3c-0.1,0-0.2,0-0.3,0s-0.2,0.1-0.3,0.1s-0.1,0.1-0.2,0.2
		c-0.1,0.1-0.1,0.2-0.1,0.3v1.9c0,0.2,0,0.3,0.1,0.4c0.1,0.1,0.1,0.2,0.3,0.2s0.2,0.1,0.3,0.1c0.1,0,0.2,0,0.3,0h1.1
		c0.3,0,0.5-0.1,0.7-0.2c0.2-0.1,0.3-0.3,0.3-0.5v-0.9V109.9z"/>
	<path fill="#00548F" d="M82.9,105.6H84c0.1,0,0.1,0,0.1,0.1v6.9v0v1.2c0,0.1,0,0.1-0.1,0.1h-1.2c-0.1,0-0.1,0-0.1-0.1v-1.2v0v-6.9
		C82.7,105.7,82.8,105.6,82.9,105.6z"/>
	<path fill="#00548F" d="M96.2,111.6c0,0.5,0,0.9-0.1,1.2c-0.1,0.3-0.2,0.5-0.4,0.7s-0.4,0.3-0.6,0.4c-0.3,0.1-0.6,0.1-0.9,0.1h-2.1
		c-0.4,0-0.7-0.1-0.9-0.2c-0.2-0.1-0.4-0.3-0.6-0.5c-0.1-0.2-0.2-0.4-0.3-0.7c-0.1-0.3-0.1-0.5-0.1-0.8v-2.1c0-0.3,0-0.5,0.1-0.8
		c0.1-0.2,0.2-0.4,0.4-0.6c0.2-0.2,0.4-0.3,0.6-0.4c0.2-0.1,0.5-0.1,0.7-0.1h2.4c0.2,0,0.4,0,0.6,0.1c0.2,0.1,0.4,0.2,0.6,0.3
		c0.2,0.2,0.3,0.3,0.4,0.5c0.1,0.2,0.2,0.5,0.2,0.7V111.6z M94.8,109.9c0-0.1,0-0.2-0.1-0.3c-0.1-0.1-0.1-0.1-0.2-0.2
		c-0.1-0.1-0.2-0.1-0.3-0.1c-0.1,0-0.2,0-0.4,0h-1.3c-0.1,0-0.2,0-0.3,0s-0.2,0.1-0.3,0.1s-0.1,0.1-0.2,0.2
		c-0.1,0.1-0.1,0.2-0.1,0.3v1.9c0,0.2,0,0.3,0.1,0.4c0.1,0.1,0.1,0.2,0.3,0.2s0.2,0.1,0.3,0.1c0.1,0,0.2,0,0.3,0h1.1
		c0.3,0,0.5-0.1,0.7-0.2c0.2-0.1,0.3-0.3,0.3-0.5v-0.9V109.9z"/>
	<path fill="#00548F" d="M102.9,115h3.2c0.1,0,0.2,0,0.2-0.1c0.1-0.1,0.1-0.1,0.1-0.2s0-0.2,0-0.2c0-0.1,0-0.2,0-0.2V114h-1.7
		c-0.3,0-0.6-0.1-0.9-0.2c-0.3-0.1-0.6-0.3-0.8-0.6s-0.4-0.5-0.6-0.9c-0.2-0.4-0.2-0.8-0.2-1.2v-0.7c0-0.3,0-0.6,0.1-0.9
		c0.1-0.3,0.2-0.6,0.4-0.8c0.2-0.2,0.4-0.4,0.8-0.6c0.3-0.1,0.7-0.2,1.1-0.2h2.7c0.2,0,0.4,0,0.5,0.1c0.1,0.1,0.2,0.2,0.2,0.4v6.3
		c0,0.2,0,0.3-0.1,0.5c-0.1,0.2-0.2,0.4-0.3,0.5c-0.1,0.2-0.3,0.3-0.5,0.4c-0.2,0.1-0.4,0.2-0.6,0.2h-3.5c-0.1,0-0.1,0-0.1-0.1v-1.1
		C102.8,115.1,102.8,115,102.9,115z M103.9,111.7c0.1,0.2,0.2,0.4,0.3,0.5c0.1,0.1,0.3,0.2,0.6,0.3c0.2,0.1,0.5,0.1,0.9,0.1h0.7
		c0.1,0,0.1,0,0.1-0.1v-3c0-0.1,0-0.1-0.1-0.1h-1.5c-0.4,0-0.6,0.1-0.8,0.4c-0.2,0.2-0.3,0.6-0.3,1v0.3
		C103.8,111.3,103.8,111.5,103.9,111.7z"/>
	<path fill="#00548F" d="M113.7,106.9c0.3-0.2,0.5-0.4,0.8-0.5c0.3-0.2,0.6-0.3,0.8-0.4s0.5-0.2,0.7-0.2c0.2,0,0.3,0,0.4,0.1
		s0.2,0.2,0.2,0.4c0,0.2,0,0.3-0.1,0.4c-0.1,0.1-0.2,0.3-0.4,0.4c-0.2,0.1-0.6,0.2-1,0.3c-0.4,0.1-1,0.2-1.7,0.3c0,0-0.1,0-0.2,0
		c-0.1,0-0.1,0-0.2,0c-0.1,0-0.1,0-0.1-0.1c0,0,0,0,0-0.1s0.1-0.1,0.1-0.1C113.3,107.3,113.5,107.1,113.7,106.9z M114.2,108
		c0-0.1,0-0.1,0.1-0.1h1.2c0.1,0,0.1,0,0.1,0.1v5.8c0,0.1,0,0.1-0.1,0.1h-1.2c-0.1,0-0.1,0-0.1-0.1V108z"/>
	<path fill="#00548F" d="M122.2,107.9h3.3c0.3,0,0.5,0.1,0.8,0.2c0.2,0.1,0.4,0.3,0.5,0.5s0.2,0.4,0.3,0.7s0.1,0.5,0.1,0.7v3.9
		c0,0.1,0,0.1-0.1,0.1h-4.1c-0.2,0-0.4-0.1-0.6-0.2c-0.1-0.1-0.3-0.3-0.3-0.5c-0.1-0.2-0.1-0.4-0.2-0.6c0-0.2,0-0.3,0-0.4
		c0-0.2,0-0.4,0.1-0.6c0-0.2,0.1-0.4,0.2-0.6c0.1-0.2,0.2-0.4,0.4-0.5c0.2-0.1,0.4-0.2,0.6-0.2h2c0.2,0,0.4,0,0.5-0.1
		c0.1-0.1,0.2-0.2,0.2-0.3c0-0.1,0-0.2-0.1-0.3c-0.1-0.1-0.2-0.2-0.3-0.2h-3.1c-0.1,0-0.1,0-0.1-0.1V108
		C122,107.9,122.1,107.9,122.2,107.9z M125.5,112.6c0.1,0,0.1,0,0.1-0.1v-0.7c0-0.1,0-0.1-0.1-0.1h-2.1c-0.1,0-0.2,0-0.3,0.1
		c-0.1,0.1-0.1,0.2-0.1,0.3c0,0.1,0,0.2,0.1,0.4c0.1,0.1,0.2,0.2,0.3,0.2H125.5z"/>
	<path fill="#00548F" d="M133.3,112.6h3.2c0.1,0,0.2,0,0.3-0.1c0.1,0,0.1-0.1,0.1-0.1s0.1-0.1,0.1-0.2c0-0.1,0-0.1,0-0.2
		c0-0.1,0-0.2-0.1-0.3c-0.1-0.1-0.2-0.2-0.3-0.2h-1.8c-0.3,0-0.5,0-0.7-0.1c-0.2-0.1-0.4-0.2-0.5-0.4s-0.2-0.4-0.3-0.6
		c-0.1-0.2-0.1-0.5-0.1-0.7c0-0.4,0-0.7,0.1-0.9s0.2-0.4,0.4-0.6c0.2-0.1,0.4-0.2,0.7-0.3c0.3,0,0.6-0.1,1-0.1h2.5
		c0.1,0,0.1,0,0.1,0.1v1.2c0,0.1,0,0.1-0.1,0.1H135c-0.1,0-0.2,0-0.3,0.1c-0.1,0.1-0.1,0.2-0.1,0.3c0,0.1,0,0.2,0.1,0.3
		c0.1,0.1,0.1,0.2,0.3,0.2h1.7c0.3,0,0.6,0,0.8,0.1c0.2,0.1,0.4,0.2,0.5,0.3c0.1,0.2,0.2,0.4,0.3,0.6c0.1,0.3,0.1,0.6,0.1,1
		c0,0.1,0,0.3-0.1,0.5c0,0.2-0.1,0.4-0.2,0.6c-0.1,0.2-0.2,0.3-0.4,0.5c-0.2,0.1-0.4,0.2-0.6,0.2h-3.8c-0.1,0-0.1,0-0.1-0.1v-1.2
		C133.2,112.6,133.3,112.6,133.3,112.6z"/>
	<path fill="#00548F" d="M154.3,111.7c0,0.1,0,0.2,0.1,0.3c0.1,0.1,0.1,0.2,0.3,0.3c0.1,0.1,0.2,0.1,0.4,0.2c0.1,0,0.3,0.1,0.5,0.1
		h2.8c0.1,0,0.1,0,0.1,0.1v1.2c0,0.1,0,0.1-0.1,0.1h-2c-0.7,0-1.2-0.1-1.6-0.2c-0.4-0.1-0.8-0.3-1.1-0.5c-0.3-0.2-0.5-0.5-0.6-0.9
		s-0.2-0.8-0.2-1.3c0-0.6,0.1-1.1,0.3-1.5c0.2-0.4,0.4-0.7,0.7-1s0.7-0.4,1-0.5s0.8-0.1,1.2-0.1c0.5,0,0.9,0.1,1.2,0.2
		c0.4,0.1,0.6,0.3,0.9,0.5c0.2,0.2,0.4,0.5,0.5,0.8c0.1,0.3,0.2,0.6,0.2,1v1.2c0,0.1,0,0.1-0.1,0.1h-4.3
		C154.3,111.6,154.3,111.7,154.3,111.7z M157.4,110.3c0.1,0,0.1,0,0.1-0.1c0-0.3-0.1-0.5-0.4-0.7s-0.7-0.3-1.1-0.3
		c-0.2,0-0.3,0-0.5,0.1c-0.2,0-0.4,0.1-0.5,0.2c-0.2,0.1-0.3,0.2-0.4,0.3c-0.1,0.1-0.2,0.3-0.2,0.4c0,0.1,0,0.1,0.1,0.1H157.4z"/>
	<path fill="#00548F" d="M166.4,113.6c0,0.3-0.1,0.4-0.3,0.4h-0.8c-0.1,0-0.2,0-0.2-0.1c-0.1-0.1-0.1-0.2-0.1-0.3v-4.8
		c0-0.2,0.1-0.4,0.2-0.5c0.2-0.2,0.4-0.2,0.6-0.2h2.6c0.3,0,0.5,0.1,0.8,0.2c0.2,0.1,0.5,0.3,0.6,0.4c0.2,0.2,0.3,0.4,0.4,0.6
		c0.1,0.2,0.2,0.5,0.2,0.7v4c0,0.1,0,0.1-0.1,0.1h-1.2c-0.1,0-0.1,0-0.1-0.1v-3.7c0-0.2,0-0.4-0.1-0.5c-0.1-0.1-0.1-0.2-0.2-0.3
		c-0.1-0.1-0.2-0.1-0.4-0.1s-0.3,0-0.5,0h-1.1c-0.1,0-0.2,0-0.2,0.1c-0.1,0.1-0.1,0.1-0.1,0.2V113.6z"/>
	<path fill="#00548F" d="M185.1,108.2c0-0.3,0-0.6,0.1-0.9c0-0.2,0.1-0.3,0.2-0.4c0.1-0.1,0.2-0.2,0.3-0.3c0.2-0.3,0.5-0.5,0.9-0.7
		c0.3-0.2,0.7-0.2,1.1-0.2h3.1c0.1,0,0.1,0,0.1,0.1v1.3c0,0.1,0,0.1-0.1,0.1h-3c-0.3,0.1-0.5,0.2-0.7,0.5c-0.1,0.3-0.2,0.6-0.2,1v3
		c0,0.3,0.1,0.5,0.3,0.6c0.2,0.2,0.4,0.3,0.6,0.3h3c0.1,0,0.1,0,0.1,0.1v1.3c0,0.1,0,0.1-0.1,0.1h-3c-0.2,0-0.4,0-0.6-0.1
		c-0.2,0-0.3-0.1-0.5-0.1c-0.3-0.1-0.6-0.3-0.8-0.5c-0.2-0.2-0.4-0.5-0.6-0.9c0-0.1-0.1-0.2-0.1-0.3c0-0.1-0.1-0.3-0.1-0.5V108.2z"
		/>
	<path fill="#00548F" d="M202.9,111.6c0,0.5,0,0.9-0.1,1.2c-0.1,0.3-0.2,0.5-0.4,0.7c-0.2,0.2-0.4,0.3-0.6,0.4
		c-0.3,0.1-0.6,0.1-0.9,0.1h-2.1c-0.4,0-0.7-0.1-0.9-0.2c-0.2-0.1-0.4-0.3-0.6-0.5c-0.1-0.2-0.2-0.4-0.3-0.7
		c-0.1-0.3-0.1-0.5-0.1-0.8v-2.1c0-0.3,0-0.5,0.1-0.8s0.2-0.4,0.4-0.6c0.2-0.2,0.4-0.3,0.6-0.4c0.2-0.1,0.5-0.1,0.7-0.1h2.4
		c0.2,0,0.4,0,0.6,0.1c0.2,0.1,0.4,0.2,0.6,0.3c0.2,0.2,0.3,0.3,0.4,0.5c0.1,0.2,0.2,0.5,0.2,0.7V111.6z M201.4,109.9
		c0-0.1,0-0.2-0.1-0.3s-0.1-0.1-0.2-0.2s-0.2-0.1-0.3-0.1c-0.1,0-0.2,0-0.3,0h-1.3c-0.1,0-0.2,0-0.3,0c-0.1,0-0.2,0.1-0.3,0.1
		c-0.1,0-0.1,0.1-0.2,0.2c-0.1,0.1-0.1,0.2-0.1,0.3v1.9c0,0.2,0,0.3,0.1,0.4c0.1,0.1,0.2,0.2,0.3,0.2c0.1,0.1,0.2,0.1,0.3,0.1
		c0.1,0,0.2,0,0.3,0h1.1c0.3,0,0.5-0.1,0.7-0.2c0.2-0.1,0.3-0.3,0.3-0.5v-0.9V109.9z"/>
	<path fill="#00548F" d="M209,108.6c0-0.2,0.1-0.4,0.2-0.5c0.2-0.1,0.3-0.2,0.5-0.2h2.4c0.2,0,0.4,0,0.6,0.1
		c0.2,0.1,0.3,0.2,0.4,0.3c0,0,0.1,0.1,0.1,0.1c0,0.1,0.1,0.1,0.1,0.1s0,0,0.1,0s0.1-0.1,0.1-0.1c0,0,0.1-0.1,0.1-0.2
		c0.1-0.1,0.1-0.1,0.2-0.1c0.2-0.1,0.3-0.1,0.5-0.1c0.2,0,0.3,0,0.3,0h0.8c0.3,0,0.6,0.1,0.9,0.2s0.5,0.3,0.7,0.5
		c0.2,0.2,0.3,0.4,0.4,0.6c0.1,0.2,0.2,0.5,0.2,0.7v4c0,0.1,0,0.1-0.1,0.1h-1.2c-0.1,0-0.1,0-0.1-0.1V110c0-0.1,0-0.2-0.1-0.3
		c-0.1-0.1-0.1-0.2-0.2-0.3c-0.1-0.1-0.2-0.1-0.3-0.2c-0.1,0-0.2-0.1-0.3-0.1h-0.8c-0.1,0-0.3,0.1-0.4,0.2c-0.1,0.1-0.2,0.3-0.2,0.5
		v4.1c0,0.1,0,0.1-0.1,0.1h-1.2c-0.1,0-0.1,0-0.1-0.1v-4.1c0-0.2-0.1-0.3-0.2-0.4c-0.2-0.1-0.3-0.2-0.5-0.2h-1.1
		c-0.1,0-0.2,0-0.2,0.1c-0.1,0.1-0.1,0.2-0.1,0.2v4.3c0,0.1,0,0.1-0.1,0.1h-1.2c-0.1,0-0.1,0-0.1-0.1V108.6z"/>
	<path fill="#00548F" d="M227.6,107.9h1.2c0.1,0,0.1,0,0.1,0.1v4.6c0,0.2-0.1,0.5-0.2,0.6c-0.2,0.2-0.4,0.3-0.6,0.4
		s-0.5,0.2-0.8,0.3s-0.6,0.1-0.9,0.1c-0.3,0-0.6,0-0.9-0.1s-0.6-0.1-0.8-0.3s-0.4-0.3-0.6-0.4c-0.2-0.2-0.2-0.4-0.2-0.6V108
		c0-0.1,0-0.1,0.1-0.1h1.2c0.1,0,0.1,0,0.1,0.1v4.1c0,0.1,0,0.1,0.1,0.2c0.1,0.1,0.2,0.1,0.3,0.2c0.1,0,0.2,0.1,0.4,0.1
		c0.1,0,0.3,0,0.4,0c0.1,0,0.3,0,0.4,0c0.1,0,0.3-0.1,0.4-0.1c0.1,0,0.2-0.1,0.3-0.2c0.1-0.1,0.1-0.1,0.1-0.2V108
		C227.5,107.9,227.5,107.9,227.6,107.9z"/>
	<path fill="#00548F" d="M236.5,113.6c0,0.3-0.1,0.4-0.3,0.4h-0.8c-0.1,0-0.2,0-0.2-0.1c-0.1-0.1-0.1-0.2-0.1-0.3v-4.8
		c0-0.2,0.1-0.4,0.2-0.5c0.2-0.2,0.4-0.2,0.6-0.2h2.6c0.3,0,0.5,0.1,0.8,0.2c0.2,0.1,0.5,0.3,0.6,0.4c0.2,0.2,0.3,0.4,0.4,0.6
		c0.1,0.2,0.2,0.5,0.2,0.7v4c0,0.1,0,0.1-0.1,0.1h-1.2c-0.1,0-0.1,0-0.1-0.1v-3.7c0-0.2,0-0.4-0.1-0.5c-0.1-0.1-0.1-0.2-0.2-0.3
		c-0.1-0.1-0.2-0.1-0.4-0.1c-0.1,0-0.3,0-0.5,0h-1.1c-0.1,0-0.2,0-0.2,0.1c-0.1,0.1-0.1,0.1-0.1,0.2V113.6z"/>
	<path fill="#00548F" d="M246.9,105.6h1.2c0.1,0,0.1,0,0.1,0.1v1.2c0,0.1,0,0.1-0.1,0.1h-1.2c-0.1,0-0.1,0-0.1-0.1v-1.2
		C246.8,105.7,246.8,105.6,246.9,105.6z M246.8,108c0-0.1,0-0.1,0.1-0.1h1.2c0.1,0,0.1,0,0.1,0.1v5.8c0,0.1,0,0.1-0.1,0.1h-1.2
		c-0.1,0-0.1,0-0.1-0.1V108z"/>
	<path fill="#00548F" d="M259.2,112.6c0.1,0,0.1,0,0.1,0.1v1.2c0,0.1,0,0.1-0.1,0.1H257c-0.4,0-0.8-0.1-1.1-0.2
		c-0.3-0.2-0.6-0.4-0.9-0.6s-0.4-0.5-0.5-0.8c-0.1-0.3-0.2-0.6-0.2-0.9v-1c0-0.4,0.1-0.8,0.2-1.1s0.3-0.6,0.5-0.8s0.5-0.4,0.9-0.5
		c0.4-0.1,0.8-0.2,1.3-0.2h2c0.1,0,0.1,0,0.1,0.1v1.2c0,0.1,0,0.1-0.1,0.1H257c-0.5,0-0.8,0.1-1,0.4c-0.2,0.3-0.3,0.6-0.3,1v0.5
		c0,0.4,0.1,0.7,0.3,1c0.2,0.2,0.6,0.4,1,0.4H259.2z"/>
	<path fill="#00548F" d="M265.9,107.9h3.3c0.3,0,0.5,0.1,0.8,0.2c0.2,0.1,0.4,0.3,0.5,0.5c0.1,0.2,0.2,0.4,0.3,0.7s0.1,0.5,0.1,0.7
		v3.9c0,0.1,0,0.1-0.1,0.1h-4.1c-0.2,0-0.4-0.1-0.6-0.2c-0.1-0.1-0.3-0.3-0.3-0.5c-0.1-0.2-0.1-0.4-0.2-0.6s0-0.3,0-0.4
		c0-0.2,0-0.4,0.1-0.6s0.1-0.4,0.2-0.6c0.1-0.2,0.2-0.4,0.4-0.5s0.4-0.2,0.6-0.2h1.9c0.2,0,0.4,0,0.5-0.1c0.1-0.1,0.2-0.2,0.2-0.3
		c0-0.1,0-0.2-0.1-0.3c-0.1-0.1-0.2-0.2-0.3-0.2h-3.1c-0.1,0-0.1,0-0.1-0.1V108C265.8,107.9,265.8,107.9,265.9,107.9z M269.2,112.6
		c0.1,0,0.1,0,0.1-0.1v-0.7c0-0.1,0-0.1-0.1-0.1h-2.1c-0.1,0-0.2,0-0.3,0.1c-0.1,0.1-0.1,0.2-0.1,0.3c0,0.1,0,0.2,0.1,0.4
		c0.1,0.1,0.2,0.2,0.3,0.2H269.2z"/>
	<path fill="#00548F" d="M281.8,112.6c0.1,0,0.1,0,0.1,0.1v1.2c0,0.1,0,0.1-0.1,0.1h-2.2c-0.4,0-0.8-0.1-1.1-0.2
		c-0.3-0.2-0.6-0.4-0.9-0.6s-0.4-0.5-0.5-0.8c-0.1-0.3-0.2-0.6-0.2-0.9v-1c0-0.4,0.1-0.8,0.2-1.1s0.3-0.6,0.5-0.8s0.5-0.4,0.9-0.5
		c0.4-0.1,0.8-0.2,1.3-0.2h2c0.1,0,0.1,0,0.1,0.1v1.2c0,0.1,0,0.1-0.1,0.1h-2.2c-0.5,0-0.8,0.1-1,0.4c-0.2,0.3-0.3,0.6-0.3,1v0.5
		c0,0.4,0.1,0.7,0.3,1c0.2,0.2,0.6,0.4,1,0.4H281.8z"/>
	<path fill="#00548F" d="M288.2,105.6h1.2c0.1,0,0.1,0,0.1,0.1v1.2c0,0.1,0,0.1-0.1,0.1h-1.2c-0.1,0-0.1,0-0.1-0.1v-1.2
		C288.1,105.7,288.1,105.6,288.2,105.6z M288.1,108c0-0.1,0-0.1,0.1-0.1h1.2c0.1,0,0.1,0,0.1,0.1v5.8c0,0.1,0,0.1-0.1,0.1h-1.2
		c-0.1,0-0.1,0-0.1-0.1V108z"/>
	<path fill="#00548F" d="M301.6,111.6c0,0.5,0,0.9-0.1,1.2c-0.1,0.3-0.2,0.5-0.4,0.7c-0.2,0.2-0.4,0.3-0.6,0.4
		c-0.3,0.1-0.6,0.1-0.9,0.1h-2.1c-0.4,0-0.7-0.1-0.9-0.2c-0.2-0.1-0.4-0.3-0.6-0.5c-0.1-0.2-0.2-0.4-0.3-0.7
		c-0.1-0.3-0.1-0.5-0.1-0.8v-2.1c0-0.3,0-0.5,0.1-0.8s0.2-0.4,0.4-0.6c0.2-0.2,0.4-0.3,0.6-0.4c0.2-0.1,0.5-0.1,0.7-0.1h2.4
		c0.2,0,0.4,0,0.6,0.1c0.2,0.1,0.4,0.2,0.6,0.3c0.2,0.2,0.3,0.3,0.4,0.5c0.1,0.2,0.2,0.5,0.2,0.7V111.6z M300.1,109.9
		c0-0.1,0-0.2-0.1-0.3s-0.1-0.1-0.2-0.2s-0.2-0.1-0.3-0.1c-0.1,0-0.2,0-0.3,0h-1.3c-0.1,0-0.2,0-0.3,0c-0.1,0-0.2,0.1-0.3,0.1
		c-0.1,0-0.1,0.1-0.2,0.2c-0.1,0.1-0.1,0.2-0.1,0.3v1.9c0,0.2,0,0.3,0.1,0.4c0.1,0.1,0.2,0.2,0.3,0.2c0.1,0.1,0.2,0.1,0.3,0.1
		c0.1,0,0.2,0,0.3,0h1.1c0.3,0,0.5-0.1,0.7-0.2c0.2-0.1,0.3-0.3,0.3-0.5v-0.9V109.9z"/>
	<path fill="#00548F" d="M309.1,113.6c0,0.3-0.1,0.4-0.3,0.4H308c-0.1,0-0.2,0-0.2-0.1c-0.1-0.1-0.1-0.2-0.1-0.3v-4.8
		c0-0.2,0.1-0.4,0.2-0.5c0.2-0.2,0.4-0.2,0.6-0.2h2.6c0.3,0,0.5,0.1,0.8,0.2c0.2,0.1,0.5,0.3,0.6,0.4c0.2,0.2,0.3,0.4,0.4,0.6
		c0.1,0.2,0.2,0.5,0.2,0.7v4c0,0.1,0,0.1-0.1,0.1h-1.2c-0.1,0-0.1,0-0.1-0.1v-3.7c0-0.2,0-0.4-0.1-0.5c-0.1-0.1-0.1-0.2-0.2-0.3
		c-0.1-0.1-0.2-0.1-0.4-0.1c-0.1,0-0.3,0-0.5,0h-1.1c-0.1,0-0.2,0-0.2,0.1c-0.1,0.1-0.1,0.1-0.1,0.2V113.6z"/>
	<path fill="#00548F" d="M320.5,111.7c0,0.1,0,0.2,0.1,0.3c0.1,0.1,0.1,0.2,0.3,0.3c0.1,0.1,0.2,0.1,0.4,0.2c0.1,0,0.3,0.1,0.5,0.1
		h2.8c0.1,0,0.1,0,0.1,0.1v1.2c0,0.1,0,0.1-0.1,0.1h-2c-0.7,0-1.2-0.1-1.6-0.2c-0.4-0.1-0.8-0.3-1.1-0.5c-0.3-0.2-0.5-0.5-0.6-0.9
		c-0.1-0.4-0.2-0.8-0.2-1.3c0-0.6,0.1-1.1,0.3-1.5c0.2-0.4,0.4-0.7,0.7-1c0.3-0.2,0.7-0.4,1-0.5c0.4-0.1,0.8-0.1,1.2-0.1
		c0.5,0,0.9,0.1,1.3,0.2c0.3,0.1,0.6,0.3,0.9,0.5c0.2,0.2,0.4,0.5,0.5,0.8c0.1,0.3,0.2,0.6,0.2,1v1.2c0,0.1,0,0.1-0.1,0.1h-4.3
		C320.5,111.6,320.5,111.7,320.5,111.7z M323.6,110.3c0.1,0,0.1,0,0.1-0.1c0-0.3-0.1-0.5-0.4-0.7s-0.7-0.3-1.1-0.3
		c-0.2,0-0.3,0-0.5,0.1c-0.2,0-0.4,0.1-0.5,0.2c-0.2,0.1-0.3,0.2-0.4,0.3c-0.1,0.1-0.2,0.3-0.2,0.4c0,0.1,0,0.1,0.1,0.1H323.6z"/>
	<path fill="#00548F" d="M331.2,112.6h3.2c0.1,0,0.2,0,0.3-0.1c0.1,0,0.1-0.1,0.1-0.1c0-0.1,0.1-0.1,0.1-0.2c0-0.1,0-0.1,0-0.2
		c0-0.1,0-0.2-0.1-0.3c-0.1-0.1-0.2-0.2-0.3-0.2h-1.8c-0.3,0-0.5,0-0.7-0.1c-0.2-0.1-0.4-0.2-0.5-0.4c-0.1-0.2-0.2-0.4-0.3-0.6
		s-0.1-0.5-0.1-0.7c0-0.4,0-0.7,0.1-0.9c0.1-0.2,0.2-0.4,0.4-0.6c0.2-0.1,0.4-0.2,0.7-0.3c0.3,0,0.6-0.1,1-0.1h2.5
		c0.1,0,0.1,0,0.1,0.1v1.2c0,0.1,0,0.1-0.1,0.1h-3.1c-0.1,0-0.2,0-0.3,0.1c-0.1,0.1-0.1,0.2-0.1,0.3c0,0.1,0,0.2,0.1,0.3
		c0.1,0.1,0.1,0.2,0.3,0.2h1.7c0.3,0,0.6,0,0.8,0.1c0.2,0.1,0.4,0.2,0.5,0.3c0.1,0.2,0.2,0.4,0.3,0.6c0.1,0.3,0.1,0.6,0.1,1
		c0,0.1,0,0.3-0.1,0.5c0,0.2-0.1,0.4-0.2,0.6c-0.1,0.2-0.2,0.3-0.4,0.5c-0.2,0.1-0.4,0.2-0.6,0.2h-3.8c-0.1,0-0.1,0-0.1-0.1v-1.2
		C331.1,112.6,331.2,112.6,331.2,112.6z"/>
</g>
<g>
	
		<linearGradient id="SVGID_21_" gradientUnits="userSpaceOnUse" x1="294.5632" y1="29.7904" x2="314.8382" y2="29.7904" gradientTransform="matrix(0.9632 -0.2688 0.2688 0.9632 -22.5338 76.0249)">
		<stop  offset="0" style="stop-color:#82B0DD"/>
		<stop  offset="0.303" style="stop-color:#2F1C7A"/>
		<stop  offset="0.3693" style="stop-color:#443C8F"/>
		<stop  offset="0.4762" style="stop-color:#6269AC"/>
		<stop  offset="0.5838" style="stop-color:#7B8FC5"/>
		<stop  offset="0.6905" style="stop-color:#8EACD8"/>
		<stop  offset="0.7961" style="stop-color:#9CC0E5"/>
		<stop  offset="0.8999" style="stop-color:#A4CDED"/>
		<stop  offset="1" style="stop-color:#A7D1F0"/>
	</linearGradient>
	<path fill="url(#SVGID_21_)" d="M285.6,25.2l-2,1.5l-1.3-1.6l2.8-2.2c0.2-0.1,0.3-0.3,0.3-0.5c0-0.2,0-0.4-0.2-0.6l-0.8-1l1.1-0.9
		l-2.2-2.9l-1.1,0.9l-0.8-1.1c-0.3-0.3-0.8-0.4-1.1-0.1l-2.8,2.2l-1.1-1.5l2-1.5l-7.2-9.3l-6.1,4.7l7.2,9.3l1.8-1.4l1.1,1.5
		l-2.2,1.7c-0.1-0.1-0.3-0.2-0.4-0.2c-1.2-0.7-2.3-0.8-3-0.3c-0.9,0.6-1,2-0.4,3.8l0.4-0.1c-0.5-1.6-0.4-2.8,0.3-3.3
		c0.5-0.4,1.5-0.3,2.5,0.3c1.1,0.6,2.2,1.7,3.2,3c1,1.3,1.6,2.7,1.9,4c0.2,1.2,0,2.1-0.5,2.5c-0.7,0.5-2,0.2-3.3-0.9l-0.3,0.3
		c0.9,0.7,1.7,1.1,2.5,1.2c0.5,0.1,1,0,1.4-0.3c0.7-0.5,0.9-1.5,0.7-2.9c0-0.2-0.1-0.5-0.2-0.7l2.3-1.7l1.3,1.6l-1.8,1.4l7.2,9.3
		l6-4.6L285.6,25.2z M290.8,32.7l-0.9,0.7l-1.6-2.1l0.9-0.7L290.8,32.7z M284.5,30.1l1.9,2.5l-1.3,1l-1.9-2.5L284.5,30.1z M283,30.9
		l-1.5-2l1.3-1l1.5,2L283,30.9z M284.7,29.9l1.4-1.1l1.9,2.5l-1.4,1.1L284.7,29.9z M286.6,32.7l1.6,2.1l-1.3,1l-1.6-2.1L286.6,32.7z
		 M286.7,32.6l1.4-1.1l1.6,2.1l-1.4,1.1L286.7,32.6z M289.1,30.5l-0.9,0.7l-1.9-2.5l0.9-0.7L289.1,30.5z M285.5,25.8l1.5,2l-0.9,0.7
		l-1.5-2L285.5,25.8z M284.4,26.6l1.5,2l-1.4,1.1l-1.5-2L284.4,26.6z M283.4,17.6l1.7,2.2l-0.8,0.6l-1.7-2.2L283.4,17.6z
		 M275.3,17.7l-1.2-1.5l1.4-1.1l1.2,1.5L275.3,17.7z M272.1,13.8l-1.3,1l-1.9-2.5l1.3-1L272.1,13.8z M270.3,11.2l1.4-1.1l1.9,2.5
		l-1.4,1.1L270.3,11.2z M272.2,14l1.6,2.1l-1.3,1l-1.6-2.1L272.2,14z M272.4,13.9l1.4-1.1l1.6,2.1L274,16L272.4,13.9z M277.8,15.7
		l-0.9,0.7l-1.2-1.5l0.9-0.7L277.8,15.7z M276.5,14l-0.9,0.7l-1.6-2.1l0.9-0.7L276.5,14z M274.8,11.8l-0.9,0.7l-1.9-2.5l0.9-0.7
		L274.8,11.8z M271.2,7.1l1.5,2l-0.9,0.7l-1.5-2L271.2,7.1z M270.1,7.9l1.5,2l-1.4,1.1l-1.5-2L270.1,7.9z M268.5,9.1l1.5,2l-1.3,1
		l-1.5-2L268.5,9.1z M265.8,11.2l1.2-0.9l1.5,2l-1.2,0.9L265.8,11.2z M267.5,13.4l1.2-0.9l1.9,2.5l-1.2,0.9L267.5,13.4z M269.5,16.1
		l1.1-0.9l1.6,2.1l-1.1,0.9L269.5,16.1z M272.5,19.8l-1.2-1.5l1.1-0.9l1.2,1.5L272.5,19.8z M273.8,18.8l-1.2-1.5l1.3-1l1.2,1.5
		L273.8,18.8z M274.5,18.8l1.6-1.2l1.1,1.5l-1.6,1.2L274.5,18.8z M277.7,28.1c-0.4-1-0.9-2-1.6-3c-0.8-1.1-1.7-2-2.6-2.6l7.2-5.5
		c0.2-0.1,0.4-0.1,0.5,0.1l3.8,5c0.1,0.1,0.1,0.2,0.1,0.3c0,0.1-0.1,0.2-0.1,0.2L277.7,28.1z M280.4,26.6l1.6-1.2l1.3,1.6l-1.6,1.2
		L280.4,26.6z M280.1,29.9l1.2-0.9l1.5,2l-1.2,0.9L280.1,29.9z M281.8,32.1l1.2-0.9l1.9,2.5l-1.2,0.9L281.8,32.1z M283.9,34.8
		l1.1-0.9l1.6,2.1l-1.1,0.9L283.9,34.8z M286.8,38.5l-1.2-1.5l1.1-0.9l1.2,1.5L286.8,38.5z M288.1,37.5l-1.2-1.5l1.3-1l1.2,1.5
		L288.1,37.5z M289.6,36.4l-1.2-1.5l1.4-1.1l1.2,1.5L289.6,36.4z M290,33.6l0.9-0.7l1.2,1.5l-0.9,0.7L290,33.6z"/>
	
		<linearGradient id="SVGID_22_" gradientUnits="userSpaceOnUse" x1="289.7525" y1="32.7972" x2="299.379" y2="32.7972" gradientTransform="matrix(0.9632 -0.2688 0.2688 0.9632 -22.5338 76.0249)">
		<stop  offset="0" style="stop-color:#82B0DD"/>
		<stop  offset="0.303" style="stop-color:#2F1C7A"/>
		<stop  offset="0.3693" style="stop-color:#443C8F"/>
		<stop  offset="0.4762" style="stop-color:#6269AC"/>
		<stop  offset="0.5838" style="stop-color:#7B8FC5"/>
		<stop  offset="0.6905" style="stop-color:#8EACD8"/>
		<stop  offset="0.7961" style="stop-color:#9CC0E5"/>
		<stop  offset="0.8999" style="stop-color:#A4CDED"/>
		<stop  offset="1" style="stop-color:#A7D1F0"/>
	</linearGradient>
	<path fill="url(#SVGID_22_)" d="M275.4,29.9l-0.1-0.4l-6.1,1c-0.1,0-0.1,0-0.2,0l4.8-3.7l-0.3-0.3l-4.8,3.7c0,0,0,0,0-0.1l2.5-5.6
		l-0.4-0.2l-2.5,5.6c0,0,0,0.1,0,0.1c-0.2-0.1-0.4-0.2-0.7-0.2c-0.9-0.1-1.7,0.5-1.9,1.4c-0.1,0.9,0.5,1.7,1.4,1.9
		c0.9,0.1,1.7-0.5,1.9-1.4c0-0.2,0-0.4,0-0.6c0.1,0,0.1,0,0.2,0L275.4,29.9z M267.4,32.1c-0.4-0.1-0.7-0.5-0.7-0.9
		c0.1-0.4,0.5-0.7,0.9-0.7c0.4,0.1,0.7,0.5,0.7,0.9C268.3,31.9,267.9,32.2,267.4,32.1z"/>
	
		<linearGradient id="SVGID_23_" gradientUnits="userSpaceOnUse" x1="283.696" y1="35.6293" x2="292.278" y2="35.6293" gradientTransform="matrix(0.9632 -0.2688 0.2688 0.9632 -22.5338 76.0249)">
		<stop  offset="0" style="stop-color:#82B0DD"/>
		<stop  offset="0.303" style="stop-color:#2F1C7A"/>
		<stop  offset="0.3693" style="stop-color:#443C8F"/>
		<stop  offset="0.4762" style="stop-color:#6269AC"/>
		<stop  offset="0.5838" style="stop-color:#7B8FC5"/>
		<stop  offset="0.6905" style="stop-color:#8EACD8"/>
		<stop  offset="0.7961" style="stop-color:#9CC0E5"/>
		<stop  offset="0.8999" style="stop-color:#A4CDED"/>
		<stop  offset="1" style="stop-color:#A7D1F0"/>
	</linearGradient>
	<path fill="url(#SVGID_23_)" d="M265.8,38.6c-3.6-0.5-6.2-3.8-5.7-7.5c0.2-1.7,1.1-3.2,2.3-4.2l0.3,0.3c-1.2,1-2,2.4-2.2,4
		c-0.4,3.4,2,6.5,5.4,7c1.4,0.2,2.9-0.1,4.2-0.9l0.2,0.4C268.9,38.5,267.3,38.8,265.8,38.6z"/>
	
		<linearGradient id="SVGID_24_" gradientUnits="userSpaceOnUse" x1="288.0464" y1="35.2763" x2="291.6774" y2="35.2763" gradientTransform="matrix(0.9632 -0.2688 0.2688 0.9632 -22.5338 76.0249)">
		<stop  offset="0" style="stop-color:#82B0DD"/>
		<stop  offset="0.303" style="stop-color:#2F1C7A"/>
		<stop  offset="0.3693" style="stop-color:#443C8F"/>
		<stop  offset="0.4762" style="stop-color:#6269AC"/>
		<stop  offset="0.5838" style="stop-color:#7B8FC5"/>
		<stop  offset="0.6905" style="stop-color:#8EACD8"/>
		<stop  offset="0.7961" style="stop-color:#9CC0E5"/>
		<stop  offset="0.8999" style="stop-color:#A4CDED"/>
		<stop  offset="1" style="stop-color:#A7D1F0"/>
	</linearGradient>
	<path fill="url(#SVGID_24_)" d="M267.2,34.8c-1.9-0.3-3.3-2-3-3.9c0.1-0.6,0.3-1.3,0.8-1.8l0.3,0.3c-0.4,0.4-0.6,1-0.7,1.5
		c-0.2,1.7,1,3.2,2.6,3.5c0.4,0.1,0.9,0,1.3-0.1l0.1,0.4C268.3,34.8,267.7,34.9,267.2,34.8z"/>
	
		<linearGradient id="SVGID_25_" gradientUnits="userSpaceOnUse" x1="285.7979" y1="35.486" x2="292.029" y2="35.486" gradientTransform="matrix(0.9632 -0.2688 0.2688 0.9632 -22.5338 76.0249)">
		<stop  offset="0" style="stop-color:#82B0DD"/>
		<stop  offset="0.303" style="stop-color:#2F1C7A"/>
		<stop  offset="0.3693" style="stop-color:#443C8F"/>
		<stop  offset="0.4762" style="stop-color:#6269AC"/>
		<stop  offset="0.5838" style="stop-color:#7B8FC5"/>
		<stop  offset="0.6905" style="stop-color:#8EACD8"/>
		<stop  offset="0.7961" style="stop-color:#9CC0E5"/>
		<stop  offset="0.8999" style="stop-color:#A4CDED"/>
		<stop  offset="1" style="stop-color:#A7D1F0"/>
	</linearGradient>
	<path fill="url(#SVGID_25_)" d="M266.6,36.9c-2.9-0.4-5-3.1-4.6-6c0.2-1.1,0.7-2.2,1.5-3l0.3,0.3c-0.7,0.8-1.2,1.7-1.4,2.8
		c-0.4,2.7,1.5,5.1,4.2,5.5c0.9,0.1,1.9,0,2.7-0.4l0.2,0.4C268.7,36.9,267.6,37,266.6,36.9z"/>
</g>
</svg>
